<svg width="243" height="230" viewBox="0 0 243 230" fill="none" xmlns="http://www.w3.org/2000/svg">
<ellipse cx="121.5" cy="115" rx="121.5" ry="115" fill="#A51D1D" fill-opacity="0.38"/>
<path d="M43.7635 130.352C42.2915 130.352 41.0328 129.947 39.9875 129.136C38.9422 128.325 38.1422 127.216 37.5875 125.808C37.0542 124.4 36.7875 122.8 36.7875 121.008C36.7875 119.003 37.2568 117.104 38.1955 115.312C39.1342 113.499 40.3608 112.048 41.8755 110.96C43.4115 109.851 45.0008 109.296 46.6435 109.296C48.0302 109.296 49.0968 109.605 49.8435 110.224C50.5902 110.843 50.9635 111.568 50.9635 112.4C50.9635 112.891 50.8142 113.339 50.5155 113.744C50.2382 114.149 49.8328 114.459 49.2995 114.672C49.2355 114.544 49.2035 114.341 49.2035 114.064C49.2035 113.808 49.2355 113.552 49.2995 113.296C49.3422 112.955 49.3635 112.709 49.3635 112.56C49.3635 112.347 49.3315 112.165 49.2675 112.016C48.9688 111.269 48.1582 110.896 46.8355 110.896C46.4728 110.896 46.0462 110.928 45.5555 110.992C44.4248 111.141 43.3048 111.707 42.1955 112.688C41.0862 113.648 40.1795 114.853 39.4755 116.304C38.7715 117.755 38.4195 119.237 38.4195 120.752C38.4195 122.075 38.6328 123.333 39.0595 124.528C39.5075 125.701 40.1475 126.651 40.9795 127.376C41.8115 128.101 42.8035 128.464 43.9555 128.464C45.4488 128.464 46.6862 128.283 47.6675 127.92C48.6702 127.557 49.6515 127.003 50.6115 126.256C50.7182 126.171 50.8355 126.128 50.9635 126.128C51.1982 126.128 51.3582 126.267 51.4435 126.544C51.5502 127.056 51.2088 127.611 50.4195 128.208C49.6302 128.805 48.6062 129.317 47.3475 129.744C46.0888 130.149 44.8942 130.352 43.7635 130.352ZM69.07 130.032C68.814 130.032 68.6327 129.968 68.526 129.84C68.4407 129.712 68.398 129.531 68.398 129.296C68.398 128.827 68.5047 128.101 68.718 127.12C68.9527 126.224 69.07 125.488 69.07 124.912C69.07 123.248 68.942 121.979 68.686 121.104H67.694C66.8193 121.104 65.678 121.083 64.27 121.04L61.262 121.008H56.942L57.006 122.256C57.006 123.237 57.166 124.464 57.486 125.936C57.5927 126.533 57.6887 127.141 57.774 127.76C57.8807 128.357 57.934 128.901 57.934 129.392V129.68C57.7207 129.893 57.4967 130 57.262 130C56.7073 130 56.27 129.349 55.95 128.048C55.63 126.725 55.47 125.136 55.47 123.28C55.47 122.533 55.502 121.797 55.566 121.072C55.0967 121.051 54.7767 120.976 54.606 120.848C54.4353 120.699 54.35 120.475 54.35 120.176C54.35 119.941 54.414 119.781 54.542 119.696C54.6913 119.611 54.9473 119.547 55.31 119.504L55.278 118.64L55.374 117.168C55.5233 114.757 55.7473 112.795 56.046 111.28C56.3447 109.765 56.9847 108.453 57.966 107.344C58.9473 106.235 60.4193 105.68 62.382 105.68C64.622 105.68 66.3713 106.885 67.63 109.296C68.8887 111.707 69.742 114.395 70.19 117.36C70.638 120.325 70.862 122.875 70.862 125.008C70.862 125.776 70.8407 126.448 70.798 127.024C70.7553 127.579 70.67 128.272 70.542 129.104C70.0513 129.723 69.5607 130.032 69.07 130.032ZM68.558 119.856C68.1527 115.909 67.4273 112.816 66.382 110.576C65.3367 108.315 63.7687 107.184 61.678 107.184C60.1207 107.184 58.9687 107.909 58.222 109.36C57.4967 110.789 57.0593 112.325 56.91 113.968C56.7607 115.611 56.686 117.456 56.686 119.504L68.558 119.856ZM80.8528 130.064C78.7194 130.064 77.1088 129.701 76.0208 128.976C74.9328 128.229 74.3888 126.885 74.3888 124.944C74.8154 114.277 75.4981 109.189 76.4368 109.68C76.9061 109.701 77.1408 110.427 77.1408 111.856C77.1408 112.731 76.9914 114.576 76.6927 117.392C76.3088 120.635 76.1168 123.013 76.1168 124.528L76.1488 125.456C76.1488 125.925 76.2874 126.395 76.5648 126.864C76.8634 127.333 77.2368 127.589 77.6848 127.632L83.9568 128.176C84.1914 128.197 84.3088 128.421 84.3088 128.848C84.3088 129.232 84.2128 129.499 84.0208 129.648C83.8501 129.797 83.5408 129.915 83.0928 130L80.8528 130.064ZM92.8885 130.352C91.4165 130.352 90.1578 129.947 89.1125 129.136C88.0672 128.325 87.2672 127.216 86.7125 125.808C86.1792 124.4 85.9125 122.8 85.9125 121.008C85.9125 119.003 86.3818 117.104 87.3205 115.312C88.2592 113.499 89.4858 112.048 91.0005 110.96C92.5365 109.851 94.1258 109.296 95.7685 109.296C97.1552 109.296 98.2218 109.605 98.9685 110.224C99.7152 110.843 100.089 111.568 100.089 112.4C100.089 112.891 99.9392 113.339 99.6405 113.744C99.3632 114.149 98.9578 114.459 98.4245 114.672C98.3605 114.544 98.3285 114.341 98.3285 114.064C98.3285 113.808 98.3605 113.552 98.4245 113.296C98.4672 112.955 98.4885 112.709 98.4885 112.56C98.4885 112.347 98.4565 112.165 98.3925 112.016C98.0938 111.269 97.2832 110.896 95.9605 110.896C95.5978 110.896 95.1712 110.928 94.6805 110.992C93.5498 111.141 92.4298 111.707 91.3205 112.688C90.2112 113.648 89.3045 114.853 88.6005 116.304C87.8965 117.755 87.5445 119.237 87.5445 120.752C87.5445 122.075 87.7578 123.333 88.1845 124.528C88.6325 125.701 89.2725 126.651 90.1045 127.376C90.9365 128.101 91.9285 128.464 93.0805 128.464C94.5738 128.464 95.8112 128.283 96.7925 127.92C97.7952 127.557 98.7765 127.003 99.7365 126.256C99.8432 126.171 99.9605 126.128 100.089 126.128C100.323 126.128 100.483 126.267 100.569 126.544C100.675 127.056 100.334 127.611 99.5445 128.208C98.7552 128.805 97.7312 129.317 96.4725 129.744C95.2138 130.149 94.0192 130.352 92.8885 130.352ZM111.027 130.032C108.51 130.032 106.718 128.901 105.651 126.64C104.606 124.379 103.998 121.435 103.827 117.808C103.806 117.488 103.795 117.029 103.795 116.432C103.795 115.216 103.944 114.277 104.243 113.616C104.563 112.933 105.15 112.592 106.003 112.592C106.238 112.592 106.419 112.656 106.547 112.784C106.675 112.891 106.739 113.04 106.739 113.232C106.739 113.637 106.494 114.032 106.003 114.416C105.726 114.416 105.534 114.597 105.427 114.96C105.342 115.323 105.299 115.877 105.299 116.624C105.299 117.307 105.31 117.851 105.331 118.256C105.459 121.435 106.046 123.952 107.091 125.808C108.136 127.643 109.587 128.56 111.443 128.56C112.51 128.56 113.47 128.304 114.323 127.792C115.176 127.28 115.838 126.597 116.307 125.744C116.798 124.869 117.043 123.931 117.043 122.928C116.83 121.179 116.659 119.952 116.531 119.248C116.403 118.544 116.168 117.403 115.827 115.824C115.678 115.205 115.603 114.661 115.603 114.192C115.603 113.701 115.699 113.36 115.891 113.168C116.083 112.976 116.371 112.88 116.755 112.88C116.99 112.88 117.171 113.019 117.299 113.296C117.427 113.573 117.544 114.117 117.651 114.928C117.758 115.739 117.896 117.061 118.067 118.896C118.174 119.941 118.376 120.965 118.675 121.968C118.995 122.971 119.411 124.123 119.923 125.424C119.966 125.552 120.083 125.872 120.275 126.384C120.467 126.875 120.606 127.28 120.691 127.6C120.776 127.92 120.819 128.176 120.819 128.368C120.819 128.859 120.563 129.104 120.051 129.104C119.88 129.104 119.251 127.792 118.163 125.168C117.928 126.128 117.448 126.981 116.723 127.728C115.998 128.453 115.134 129.019 114.131 129.424C113.128 129.829 112.094 130.032 111.027 130.032ZM130.478 130.064C128.344 130.064 126.734 129.701 125.646 128.976C124.558 128.229 124.014 126.885 124.014 124.944C124.44 114.277 125.123 109.189 126.062 109.68C126.531 109.701 126.766 110.427 126.766 111.856C126.766 112.731 126.616 114.576 126.318 117.392C125.934 120.635 125.742 123.013 125.742 124.528L125.774 125.456C125.774 125.925 125.912 126.395 126.19 126.864C126.488 127.333 126.862 127.589 127.31 127.632L133.582 128.176C133.816 128.197 133.934 128.421 133.934 128.848C133.934 129.232 133.838 129.499 133.646 129.648C133.475 129.797 133.166 129.915 132.718 130L130.478 130.064ZM150.258 130.032C150.002 130.032 149.82 129.968 149.714 129.84C149.628 129.712 149.586 129.531 149.586 129.296C149.586 128.827 149.692 128.101 149.906 127.12C150.14 126.224 150.258 125.488 150.258 124.912C150.258 123.248 150.13 121.979 149.874 121.104H148.882C148.007 121.104 146.866 121.083 145.458 121.04L142.45 121.008H138.13L138.194 122.256C138.194 123.237 138.354 124.464 138.674 125.936C138.78 126.533 138.876 127.141 138.962 127.76C139.068 128.357 139.122 128.901 139.122 129.392V129.68C138.908 129.893 138.684 130 138.45 130C137.895 130 137.458 129.349 137.138 128.048C136.818 126.725 136.658 125.136 136.658 123.28C136.658 122.533 136.69 121.797 136.754 121.072C136.284 121.051 135.964 120.976 135.794 120.848C135.623 120.699 135.538 120.475 135.538 120.176C135.538 119.941 135.602 119.781 135.73 119.696C135.879 119.611 136.135 119.547 136.498 119.504L136.466 118.64L136.562 117.168C136.711 114.757 136.935 112.795 137.234 111.28C137.532 109.765 138.172 108.453 139.154 107.344C140.135 106.235 141.607 105.68 143.57 105.68C145.81 105.68 147.559 106.885 148.818 109.296C150.076 111.707 150.93 114.395 151.378 117.36C151.826 120.325 152.05 122.875 152.05 125.008C152.05 125.776 152.028 126.448 151.986 127.024C151.943 127.579 151.858 128.272 151.73 129.104C151.239 129.723 150.748 130.032 150.258 130.032ZM149.746 119.856C149.34 115.909 148.615 112.816 147.57 110.576C146.524 108.315 144.956 107.184 142.866 107.184C141.308 107.184 140.156 107.909 139.41 109.36C138.684 110.789 138.247 112.325 138.098 113.968C137.948 115.611 137.874 117.456 137.874 119.504L149.746 119.856ZM164.824 130.032C164.227 130.032 163.811 129.723 163.576 129.104C163.342 128.485 163.15 127.653 163 126.608L162.904 125.808C162.584 124.101 162.328 122.405 162.136 120.72C161.944 119.013 161.752 116.955 161.56 114.544L161.368 112.176C160.088 112.197 158.264 112.144 155.896 112.016L155.256 111.984C154.958 111.963 154.744 111.824 154.616 111.568C154.51 111.291 154.456 110.917 154.456 110.448H156.664C160.376 110.448 163.726 110.587 166.712 110.864C169.699 111.141 171.192 111.707 171.192 112.56C171.192 112.795 171.15 112.955 171.064 113.04C171 113.125 170.851 113.168 170.616 113.168C169.763 113.104 168.44 112.923 166.648 112.624C166.243 112.56 165.752 112.485 165.176 112.4C164.6 112.315 163.95 112.229 163.224 112.144C163.224 115.237 163.683 119.995 164.6 126.416C164.643 126.736 164.792 127.195 165.048 127.792C165.155 128.048 165.251 128.325 165.336 128.624C165.443 128.901 165.496 129.157 165.496 129.392C165.496 129.691 165.454 129.872 165.368 129.936C165.283 130 165.176 130.032 165.048 130.032C164.942 130.032 164.867 130.032 164.824 130.032ZM182.816 130.032C181.045 130.032 179.456 129.669 178.048 128.944C176.661 128.219 175.573 127.195 174.784 125.872C173.995 124.549 173.6 123.024 173.6 121.296C173.6 120.123 173.835 119.045 174.304 118.064C174.773 117.083 175.456 116.304 176.352 115.728C177.248 115.131 178.304 114.832 179.52 114.832C181.824 114.832 183.872 115.227 185.664 116.016C187.477 116.784 188.885 117.893 189.888 119.344C190.912 120.795 191.424 122.469 191.424 124.368C191.424 125.627 190.955 126.683 190.016 127.536C189.099 128.389 187.968 129.019 186.624 129.424C185.301 129.829 184.032 130.032 182.816 130.032ZM182.208 128.368C184.341 128.368 186.133 128.048 187.584 127.408C189.056 126.768 189.792 125.701 189.792 124.208C189.792 121.605 188.789 119.653 186.784 118.352C184.779 117.029 182.219 116.368 179.104 116.368C177.611 116.368 176.555 116.816 175.936 117.712C175.339 118.587 175.04 119.781 175.04 121.296C175.04 122.555 175.339 123.728 175.936 124.816C176.555 125.883 177.408 126.747 178.496 127.408C179.584 128.048 180.821 128.368 182.208 128.368ZM208.533 131.088C208.384 131.259 208.17 131.344 207.893 131.344C206.89 131.344 205.29 130.427 203.093 128.592C200.917 126.736 198.986 124.891 197.301 123.056C197.408 123.632 197.61 124.603 197.909 125.968C198.037 126.501 198.144 127.013 198.229 127.504C198.336 127.995 198.389 128.379 198.389 128.656C198.389 129.275 198.165 129.648 197.717 129.776C197.61 130.053 197.322 129.36 196.853 127.696C196.405 126.032 195.978 124.112 195.573 121.936C195.189 119.739 194.997 117.904 194.997 116.432C194.997 115.685 195.061 115.077 195.189 114.608C195.466 114.395 195.701 114.288 195.893 114.288C196.277 114.288 196.544 114.619 196.693 115.28C196.842 115.92 196.981 116.933 197.109 118.32L197.173 119.056C198.005 119.013 199.136 118.832 200.565 118.512C202.016 118.192 203.306 117.755 204.437 117.2C205.589 116.624 206.165 115.941 206.165 115.152C206.165 114.725 205.856 114.256 205.237 113.744C204.64 113.211 203.712 112.763 202.453 112.4C201.216 112.037 199.69 111.856 197.877 111.856H196.853C195.637 111.856 194.688 112.059 194.005 112.464C193.322 112.848 192.981 113.68 192.981 114.96C192.661 114.96 192.373 114.757 192.117 114.352C191.861 113.947 191.733 113.573 191.733 113.232C191.733 111.909 192.362 111.045 193.621 110.64C194.901 110.235 196.736 110.032 199.125 110.032C200.384 110.032 201.696 110.235 203.061 110.64C204.426 111.045 205.578 111.685 206.517 112.56C207.456 113.413 207.925 114.48 207.925 115.76C207.925 116.635 207.53 117.36 206.741 117.936C205.973 118.512 205.066 118.96 204.021 119.28C202.976 119.6 201.696 119.931 200.181 120.272C198.922 120.549 198.101 120.752 197.717 120.88C199.36 123.099 200.938 124.827 202.453 126.064C203.989 127.301 205.589 128.421 207.253 129.424C207.829 129.765 208.234 130.021 208.469 130.192C208.704 130.363 208.821 130.523 208.821 130.672C208.821 130.821 208.725 130.96 208.533 131.088Z" fill="#56A705"/>
</svg>
